<?xml version="1.0" encoding="UTF-8"?>
<svg xmlns="http://www.w3.org/2000/svg" xmlns:xlink="http://www.w3.org/1999/xlink" width="375pt" height="374.999991pt" viewBox="0 0 375 374.999991" version="1.2">
<defs>
<clipPath id="clip1">
  <path d="M 0 104.125 L 375 104.125 L 375 269.125 L 0 269.125 Z M 0 104.125 "/>
</clipPath>
</defs>
<g id="surface1">
<g clip-path="url(#clip1)" clip-rule="nonzero">
<path style=" stroke:none;fill-rule:nonzero;fill:rgb(0%,76.078796%,79.60968%);fill-opacity:1;" d="M 215.714844 167.074219 L 215.714844 269.125 L 80.21875 269.125 C 68.175781 268.101562 56.835938 264.785156 46.6875 259.65625 C 45.921875 255.121094 45.34375 250.523438 44.949219 245.867188 C 44.566406 241.261719 44.371094 236.609375 44.371094 231.902344 C 44.371094 230.410156 44.386719 228.921875 44.433594 227.445312 C 44.652344 219.164062 45.484375 211.03125 46.875 203.085938 C 48.132812 195.898438 49.863281 188.878906 52.011719 182.042969 C 51.722656 183.957031 51.574219 185.914062 51.574219 187.90625 C 51.574219 193.28125 52.660156 198.410156 54.625 203.085938 C 57.25 209.351562 61.449219 214.808594 66.714844 218.960938 C 73.445312 224.261719 81.921875 227.4375 91.105469 227.4375 L 165.121094 227.4375 L 165.121094 203.078125 L 79.554688 203.078125 L 108.683594 167.058594 L 215.714844 167.058594 Z M 82.582031 104.125 C 51.042969 106.023438 24.023438 123.542969 10.183594 148.550781 C 6.96875 154.351562 4.46875 160.5625 2.785156 167.074219 C 1.160156 173.371094 0.292969 179.945312 0.292969 186.710938 C 0.292969 192.316406 0.886719 197.800781 2.011719 203.09375 C 3.863281 211.78125 7.164062 219.976562 11.667969 227.453125 C 18.167969 238.238281 27.160156 247.511719 37.914062 254.582031 C 39.882812 255.878906 41.910156 257.097656 43.996094 258.238281 L 42.144531 249.347656 C 41.488281 244.148438 40.867188 236.554688 41.160156 227.453125 C 41.386719 220.15625 42.199219 211.882812 44.035156 203.09375 C 46.429688 191.628906 50.558594 179.289062 57.414062 167.074219 L 57.558594 167.074219 C 59.160156 164.503906 61.050781 162.125 63.1875 160 C 69.542969 153.640625 78.042969 149.425781 87.46875 148.558594 L 230.632812 148.558594 L 230.632812 269.125 L 281.746094 269.125 L 281.746094 148.550781 L 340.871094 148.550781 L 347.472656 139.878906 L 374.691406 104.125 Z M 82.582031 104.125 "/>
</g>
</g>
</svg>
